<svg width="16" height="16" viewBox="0 0 16 16" fill="none" xmlns="http://www.w3.org/2000/svg">
<path d="M14.958 15.5864C15.0969 15.5864 15.2427 15.5828 15.3955 15.5756C15.5483 15.5684 15.6941 15.5581 15.833 15.5448V10.6698L11.6663 9.83643L9.24967 12.2531C8.19412 11.6142 7.22523 10.8573 6.34301 9.98226C5.46079 9.10726 4.72829 8.16976 4.14551 7.16976L6.52051 4.77393L5.74967 0.586426H0.874674C0.846896 0.725315 0.833008 0.871148 0.833008 1.02393V1.46143C0.833008 3.25309 1.23217 4.99976 2.03051 6.70143C2.82884 8.40309 3.8844 9.91337 5.19718 11.2323C6.50995 12.5517 8.0169 13.6073 9.71801 14.3989C11.4191 15.1906 13.1658 15.5864 14.958 15.5864Z" fill="white"/>
</svg>
