<svg width="31" height="32" viewBox="0 0 31 32" fill="none" xmlns="http://www.w3.org/2000/svg">
<path d="M27.7747 24.2589H24.8284C23.7137 24.2589 23.3779 23.356 21.3797 21.3565C19.6333 19.6735 18.8958 19.4642 18.454 19.4642C17.8431 19.4642 17.6765 19.6321 17.6765 20.473V23.1235C17.6765 23.8404 17.444 24.2602 15.571 24.2602C13.754 24.1381 11.992 23.5861 10.4302 22.6497C8.8683 21.7132 7.55124 20.4191 6.5875 18.8739C4.29917 16.0258 2.70696 12.6831 1.9375 9.1115C1.9375 8.66975 2.10542 8.26933 2.94758 8.26933H5.89258C6.6495 8.26933 6.92204 8.60646 7.21913 9.38533C8.649 13.5936 11.089 17.2542 12.0797 17.2542C12.4594 17.2542 12.6248 17.0862 12.6248 16.1395V11.8046C12.4995 9.82708 11.4493 9.66046 11.4493 8.94487C11.4626 8.75608 11.549 8.57991 11.6901 8.45377C11.8312 8.32763 12.0159 8.26147 12.205 8.26933H16.8343C17.4672 8.26933 17.6765 8.5845 17.6765 9.34141V15.1927C17.6765 15.8243 17.9477 16.0335 18.1389 16.0335C18.5186 16.0335 18.8105 15.8243 19.5068 15.1294C20.9991 13.3094 22.2183 11.2817 23.126 9.11021C23.2189 8.84949 23.3946 8.62631 23.6261 8.47473C23.8577 8.32314 24.1325 8.25146 24.4086 8.27062H27.3549C28.2384 8.27062 28.4257 8.71237 28.2384 9.34271C27.1668 11.7432 25.8409 14.0218 24.2833 16.1395C23.9656 16.6238 23.839 16.8757 24.2833 17.444C24.5753 17.8858 25.6086 18.7486 26.3022 19.5688C27.3123 20.5763 28.1506 21.7414 28.7848 23.0176C29.038 23.8391 28.6156 24.2589 27.7747 24.2589Z" fill="#2E498D"/>
</svg>
