<svg width="20" height="21" viewBox="0 0 20 21" fill="none" xmlns="http://www.w3.org/2000/svg">
<path d="M16.625 17.6936C16.7639 17.6936 16.9097 17.69 17.0625 17.6828C17.2153 17.6755 17.3611 17.6653 17.5 17.6519V12.7769L13.3333 11.9436L10.9167 14.3603C9.86111 13.7214 8.89222 12.9644 8.01 12.0894C7.12778 11.2144 6.39528 10.2769 5.8125 9.27694L8.1875 6.8811L7.41667 2.6936H2.54167C2.51389 2.83249 2.5 2.97833 2.5 3.1311V3.5686C2.5 5.36027 2.89917 7.10694 3.6975 8.8086C4.49583 10.5103 5.55139 12.0205 6.86417 13.3394C8.17694 14.6589 9.68389 15.7144 11.385 16.5061C13.0861 17.2978 14.8328 17.6936 16.625 17.6936Z" fill="white"/>
</svg>
