<svg width="228" height="62" viewBox="0 0 228 62" fill="none" xmlns="http://www.w3.org/2000/svg">
<path d="M55.5309 32.4914V10.4725C56.7647 10.4092 59.8334 10.2827 62.2378 10.2827C67.521 10.2827 69.6723 12.7187 69.6723 15.7874C69.6723 18.0969 68.7865 19.6471 67.1414 20.7227V20.786C68.7549 21.3871 70.305 23.0005 70.305 25.8478C70.305 30.4983 66.6985 32.6812 61.8898 32.6812C59.7701 32.6812 56.828 32.618 55.5309 32.4914ZM62.5541 23.6016H60.5927V27.746C60.9407 27.8409 61.352 27.9358 62.301 27.9358C64.2625 27.9358 65.2432 27.0816 65.2432 25.5947C65.2432 24.2027 64.1992 23.6016 62.5541 23.6016ZM62.1745 15.0281C61.5418 15.0281 61.1621 15.0914 60.5927 15.1547V19.1725H62.2694C63.5665 19.1725 64.6105 18.6347 64.6105 17.0212C64.6105 15.6925 63.4083 15.0281 62.1745 15.0281ZM75.0564 32.5547V10.4092H88.1855V15.1547H80.1183V19.046H87.2364V23.7914H80.1183V27.8092H88.5019V32.5547H75.0564ZM106.383 32.5547V23.6332H98.3153V32.5547H93.2535V10.4092H98.3153V18.8878H106.383V10.4092H111.444V32.5547H106.383ZM114.604 15.1547V10.4092H132.953V15.1547H126.31V32.5547H121.248V15.1547H114.604ZM136.105 32.5547V10.4092H141.167V20.0583L148.411 10.4092H154.485L146.165 20.6278L155.15 32.5547H148.728L141.167 22.0198V32.5547H136.105ZM170.442 32.5547V15.1547H165.57L165.096 19.3307C163.767 31.0045 160.983 33.4089 155.795 32.5547L155.89 27.4929C157.724 27.8092 159.623 27.1132 160.508 14.8383L160.825 10.4092H175.504V32.5547H170.442ZM185.64 32.5547H181.211V10.4092H186.273V24.1711L196.08 10.4092H200.509V32.5547H195.448V18.7929L185.64 32.5547ZM219.334 32.5547V23.6332H211.267V32.5547H206.205V10.4092H211.267V18.8878H219.334V10.4092H224.396V32.5547H219.334Z" fill="#2E498D"/>
<path d="M25.0687 1.23963C24.7216 1.10264 24.0002 0.901725 23.4705 0.783002C22.9408 0.673411 22.2741 0.572953 21.4613 0.554688L21.443 10.6188C21.4248 16.1623 21.3791 20.5276 21.3426 20.3267C21.2969 20.1258 21.1691 19.587 21.0412 19.1395C20.9133 18.692 20.612 17.9066 20.3745 17.4043C20.1279 16.902 19.6805 16.1623 19.3882 15.7604C19.0868 15.3586 18.4932 14.701 18.0731 14.2992C17.653 13.8882 17.0411 13.3768 16.7124 13.1576C16.3836 12.9385 15.7078 12.564 15.2055 12.3266C14.7032 12.08 13.8813 11.7786 13.379 11.6508C12.7032 11.4681 12.1552 11.3951 11.2328 11.3585C10.4657 11.322 9.70768 11.3494 9.22366 11.4133C8.79442 11.4772 8.05468 11.6508 7.57979 11.806C7.1049 11.9613 6.42909 12.2261 6.07292 12.4088C5.71675 12.5823 5.12313 12.9385 4.74869 13.1942C4.37426 13.4407 3.76237 13.943 3.38794 14.2992C3.02264 14.6462 2.48381 15.249 2.20071 15.6234C1.91759 15.9979 1.4975 16.6828 1.26005 17.1303C1.03173 17.5778 0.739494 18.2445 0.611637 18.5915C0.483784 18.9386 0.319397 19.5778 0.246334 20.0071C0.164143 20.4363 0.0819473 21.0573 -0.000244141 22.0162L10.0639 22.0436C15.6073 22.0528 19.9727 22.0984 19.7718 22.135C19.5709 22.1806 19.032 22.3085 18.5845 22.4363C18.137 22.5642 17.3516 22.8656 16.8494 23.103C16.3471 23.3496 15.6073 23.7971 15.2055 24.0893C14.8037 24.3907 14.1461 24.9843 13.7443 25.4044C13.3333 25.8245 12.8219 26.4364 12.6027 26.7652C12.3835 27.0939 12.0091 27.7698 11.7716 28.272C11.5251 28.7743 11.2237 29.5963 11.0958 30.0986C10.904 30.7926 10.8401 31.3223 10.8036 32.2904C10.7579 33.2858 10.7853 33.7699 10.9132 34.4822C11.0045 34.9845 11.1963 35.7425 11.3424 36.1717C11.4977 36.601 11.726 37.158 11.8447 37.4046C11.9726 37.6603 12.3013 38.1992 12.5662 38.6193C12.8402 39.0302 13.3607 39.6786 13.726 40.0622C14.0822 40.4458 14.6941 40.9937 15.0685 41.2768C15.4429 41.5599 16.1279 41.98 16.5754 42.2175C17.0229 42.4458 17.7078 42.7472 18.0823 42.875C18.4567 43.0029 19.1782 43.1855 19.6805 43.286C20.1827 43.3956 20.7855 43.4778 21.4613 43.4778L21.4887 33.4137C21.4978 27.8702 21.5435 23.5048 21.58 23.7058C21.6257 23.9067 21.7535 24.4455 21.8814 24.893C22.0093 25.3405 22.3106 26.1259 22.5481 26.6282C22.7947 27.1305 23.2422 27.8702 23.5344 28.272C23.8358 28.6739 24.4294 29.3314 24.8495 29.7333C25.2696 30.1442 25.8815 30.6557 26.2102 30.8748C26.539 31.094 27.2148 31.4685 27.7171 31.715C28.2194 31.9525 29.0413 32.263 29.5436 32.3908C30.3656 32.6192 30.6121 32.6374 32.1008 32.6465C33.3519 32.6557 33.8999 32.6192 34.3839 32.5004C34.7309 32.4182 35.3337 32.2356 35.7081 32.0986C36.0826 31.9707 36.6031 31.7516 36.8497 31.6328C37.1054 31.505 37.6442 31.1762 38.0643 30.9114C38.4753 30.6374 39.1237 30.1168 39.5073 29.7515C39.8908 29.3954 40.4388 28.7835 40.7219 28.409C41.005 28.0346 41.4251 27.3497 41.6626 26.9022C41.8909 26.4547 42.1831 25.7971 42.311 25.441C42.4388 25.0848 42.6032 24.4546 42.6763 24.0254C42.7585 23.5962 42.8407 22.9752 42.9229 22.0162L32.8588 21.9888C27.3153 21.9797 22.9499 21.934 23.1508 21.8975C23.3517 21.8518 23.8906 21.724 24.3381 21.5961C24.7856 21.4683 25.571 21.1669 26.0733 20.9295C26.5755 20.6829 27.3153 20.2354 27.7171 19.9431C28.1189 19.6418 28.7765 19.0481 29.1783 18.628C29.5893 18.208 30.1007 17.5961 30.3199 17.2673C30.5391 16.9385 30.9135 16.2627 31.1601 15.7604C31.3975 15.2581 31.6989 14.4362 31.8359 13.9339C32.0094 13.2581 32.0825 12.6919 32.119 11.7878C32.1555 11.0297 32.1281 10.2535 32.0642 9.77859C32.0003 9.34936 31.8176 8.59135 31.6533 8.08906C31.4797 7.58677 31.2149 6.91096 31.0505 6.58219C30.8861 6.25341 30.5391 5.67806 30.2834 5.30363C30.0368 4.92919 29.5345 4.31731 29.1783 3.94287C28.8313 3.57757 28.2285 3.03875 27.8541 2.75564C27.4797 2.47253 26.8404 2.07069 26.4386 1.86065C26.0367 1.6506 25.4157 1.36749 25.0687 1.23963Z" fill="#2E498D"/>
<path d="M53.2236 51.2775C53.2236 48.8415 55.0116 46.9455 57.5916 46.9455C60.0876 46.9455 61.9716 48.6615 61.9716 51.2775C61.9716 53.7975 60.0876 55.6095 57.5916 55.6095C55.0956 55.6095 53.2236 53.8935 53.2236 51.2775ZM54.7836 51.2775C54.7836 52.9575 56.0196 54.2295 57.5916 54.2295C59.3556 54.2295 60.4116 52.9335 60.4116 51.2775C60.4116 49.5375 59.1756 48.3255 57.5916 48.3255C55.9836 48.3255 54.7836 49.5375 54.7836 51.2775ZM67.6396 50.0775V55.4775H66.2596V53.6175C65.9236 53.7975 65.4316 53.9295 64.9156 53.9295C63.5236 53.9295 62.9596 53.1735 62.9596 51.8055V50.0775H64.4356V51.6375C64.4356 52.3095 64.7596 52.6335 65.3116 52.6335C65.6596 52.6335 66.0556 52.5375 66.2596 52.4175V50.0775H67.6396ZM70.5582 55.4775H69.1782V50.0775H70.5582V53.4975L73.0782 50.0775H74.4582V55.4775H73.0782V52.0575L70.5582 55.4775ZM80.0905 53.6655L80.7385 54.6735C80.2825 55.2855 79.4665 55.6095 78.5905 55.6095C76.8385 55.6095 75.6625 54.4815 75.6625 52.7775C75.6625 51.2055 76.8145 49.9455 78.4585 49.9455C79.3465 49.9455 80.1265 50.1735 80.6305 50.6775L79.9825 51.7695C79.5745 51.3735 79.1305 51.2415 78.6385 51.2415C77.8705 51.2415 77.1385 51.8295 77.1385 52.7775C77.1385 53.7375 77.8825 54.3255 78.6985 54.3255C79.2865 54.3255 79.7425 54.0495 80.0905 53.6655ZM81.1767 51.4575V50.0775H86.0967V51.4575H84.3327V55.4775H82.9527V51.4575H81.1767ZM92.1964 50.0775L90.1204 52.6455L92.4484 55.4775H90.6484L88.5124 52.7535L90.4564 50.0775H92.1964ZM87.0844 55.4775V50.0775H88.4644V55.4775H87.0844ZM93.6802 51.4695L93.3322 50.4615C93.8002 50.1855 94.5322 49.9455 95.2402 49.9455C96.8362 49.9455 97.4002 50.7615 97.4002 52.1895V55.4775H96.2002V54.8535C95.9122 55.2615 95.3362 55.5495 94.6042 55.5495C93.6202 55.5495 92.9122 54.9375 92.9122 53.8935C92.9122 52.7055 93.7882 52.1415 94.8802 52.1415C95.3602 52.1415 95.8402 52.2975 96.1042 52.4895C96.1402 51.5895 95.9002 51.0975 95.0962 51.0975C94.4722 51.0975 94.0762 51.2895 93.6802 51.4695ZM95.0602 54.3855C95.6362 54.3855 95.9362 54.1335 96.1042 53.8935V53.3415C95.8642 53.1615 95.5522 53.0775 95.1562 53.0775C94.7002 53.0775 94.2922 53.2935 94.2922 53.7495C94.2922 54.1575 94.6282 54.3855 95.0602 54.3855ZM101.358 55.4775V50.0775C101.826 50.0655 102.642 50.0175 103.482 50.0175C105.054 50.0175 105.93 50.4495 105.93 51.4335C105.93 52.0815 105.462 52.5495 104.922 52.6335V52.6575C105.678 52.8375 106.074 53.2815 106.074 53.9055C106.074 54.9735 105.246 55.5375 103.506 55.5375C102.834 55.5375 101.85 55.4775 101.358 55.4775ZM103.602 53.1855H102.738V54.3855C102.942 54.3975 103.314 54.4335 103.65 54.4335C104.262 54.4335 104.622 54.1815 104.622 53.8095C104.622 53.4015 104.25 53.1855 103.602 53.1855ZM103.602 51.1335C103.278 51.1335 102.882 51.1455 102.738 51.1575V52.3455H103.638C104.094 52.3455 104.466 52.1415 104.466 51.7215C104.466 51.3255 104.118 51.1335 103.602 51.1335ZM111.617 53.9655L112.013 54.9375C111.473 55.3935 110.705 55.6095 109.949 55.6095C108.209 55.6095 107.045 54.4815 107.045 52.7775C107.045 51.2055 108.125 49.9455 109.901 49.9455C111.293 49.9455 112.457 50.9415 112.457 52.4535C112.457 52.7895 112.433 52.9935 112.373 53.1975H108.473C108.593 54.0135 109.241 54.4575 110.093 54.4575C110.753 54.4575 111.305 54.2175 111.617 53.9655ZM109.841 51.0975C109.013 51.0975 108.569 51.5655 108.425 52.2735H111.077C111.089 51.6135 110.633 51.0975 109.841 51.0975ZM117.313 55.4775V53.4135H114.949V55.4775H113.569V50.0775H114.949V52.1175H117.313V50.0775H118.693V55.4775H117.313ZM119.661 51.4575V50.0775H124.581V51.4575H122.817V55.4775H121.437V51.4575H119.661ZM126.949 55.4775H125.569V50.0775H126.949V53.4975L129.469 50.0775H130.849V55.4775H129.469V52.0575L126.949 55.4775ZM135.941 55.4775V51.4575H134.513L134.477 52.0335C134.213 54.9735 133.493 55.5855 132.041 55.5855L131.921 54.2415C132.389 54.2895 133.025 53.8455 133.145 51.7575L133.229 50.0775H137.321V55.4775H135.941ZM141.498 50.0775H143.262V55.4775H141.882V53.8575H141.114L139.998 55.4775H138.414L139.854 53.5575C139.386 53.3895 138.81 52.8855 138.81 51.9975C138.81 50.9535 139.554 50.0775 141.498 50.0775ZM140.286 52.0935C140.286 52.5375 140.73 52.8375 141.162 52.8375H141.882V51.2775H141.27C140.598 51.2775 140.286 51.6855 140.286 52.0935ZM144.799 55.4775V50.0775H146.179V54.1935H148.399V50.0775H149.779V54.1935H150.679V56.7375H149.383V55.4775H144.799ZM152.976 55.4775H151.596V50.0775H152.976V53.4975L155.496 50.0775H156.876V55.4775H155.496V52.0575L152.976 55.4775ZM159.796 55.4775H158.416V50.0775H159.796V53.4975L162.316 50.0775H163.696V55.4775H162.316V52.0575L159.796 55.4775ZM171.872 53.6655L172.52 54.6735C172.064 55.2855 171.248 55.6095 170.372 55.6095C168.62 55.6095 167.444 54.4815 167.444 52.7775C167.444 51.2055 168.596 49.9455 170.24 49.9455C171.128 49.9455 171.908 50.1735 172.412 50.6775L171.764 51.7695C171.356 51.3735 170.912 51.2415 170.42 51.2415C169.652 51.2415 168.92 51.8295 168.92 52.7775C168.92 53.7375 169.664 54.3255 170.48 54.3255C171.068 54.3255 171.524 54.0495 171.872 53.6655ZM175.666 48.6615L177.814 47.0535H178.81V55.4775H177.43V49.0215L176.398 49.8015L175.666 48.6615ZM186.186 50.1495C186.186 53.3775 184.278 55.3215 181.878 55.6095L181.422 54.5175C183.15 54.1695 184.218 53.1495 184.554 51.5895C184.206 52.0695 183.666 52.3455 182.958 52.3455C181.542 52.3455 180.426 51.2295 180.426 49.7415C180.426 47.9775 181.866 46.9455 183.21 46.9455C185.082 46.9455 186.186 48.2775 186.186 50.1495ZM184.722 50.1375C184.722 49.1775 184.218 48.3255 183.21 48.3255C182.43 48.3255 181.89 48.9735 181.89 49.6455C181.89 50.3775 182.406 51.0495 183.294 51.0495C184.05 51.0495 184.506 50.5935 184.722 50.1375ZM192.843 50.1495C192.843 53.3775 190.935 55.3215 188.535 55.6095L188.079 54.5175C189.807 54.1695 190.875 53.1495 191.211 51.5895C190.863 52.0695 190.323 52.3455 189.615 52.3455C188.199 52.3455 187.083 51.2295 187.083 49.7415C187.083 47.9775 188.523 46.9455 189.867 46.9455C191.739 46.9455 192.843 48.2775 192.843 50.1495ZM191.379 50.1375C191.379 49.1775 190.875 48.3255 189.867 48.3255C189.087 48.3255 188.547 48.9735 188.547 49.6455C188.547 50.3775 189.063 51.0495 189.951 51.0495C190.707 51.0495 191.163 50.5935 191.379 50.1375ZM196.871 50.4735H197.099C197.735 50.4735 198.179 49.9575 198.179 49.3935C198.179 48.7095 197.675 48.3255 196.955 48.3255C196.235 48.3255 195.767 48.7695 195.767 49.3935C195.767 49.9575 196.211 50.4735 196.871 50.4735ZM197.099 51.8535H196.895C196.187 51.8535 195.539 52.2975 195.539 53.0415C195.539 53.7015 196.067 54.2295 196.967 54.2295C197.963 54.2295 198.431 53.7135 198.419 53.0415C198.407 52.2615 197.831 51.8535 197.099 51.8535ZM196.979 55.6095C195.347 55.6095 194.063 54.7335 194.063 53.3055C194.063 52.2255 194.687 51.4575 195.503 51.1815V51.1455C194.855 50.8695 194.303 50.1375 194.303 49.1535C194.303 47.8335 195.491 46.9455 196.967 46.9455C198.455 46.9455 199.655 47.8335 199.655 49.1535C199.655 49.9695 199.175 50.7855 198.359 51.1335V51.1695C199.187 51.3375 199.883 52.0935 199.883 53.1855C199.883 54.7335 198.611 55.6095 196.979 55.6095ZM203.885 55.4775V50.0775H207.509V51.3735H205.265V55.4775H203.885ZM207.873 52.7775C207.873 51.1575 209.025 49.9455 210.813 49.9455C212.601 49.9455 213.753 51.1575 213.753 52.7775C213.753 54.3975 212.601 55.6095 210.813 55.6095C209.025 55.6095 207.873 54.3975 207.873 52.7775ZM209.349 52.7775C209.349 53.6775 209.973 54.3255 210.813 54.3255C211.665 54.3255 212.289 53.7135 212.289 52.7775C212.289 51.8655 211.653 51.2415 210.813 51.2415C209.997 51.2415 209.349 51.8415 209.349 52.7775ZM214.124 56.7375V54.1935H214.808C215.192 53.6895 215.492 52.5975 215.564 51.3735L215.648 50.0775H219.632V54.1935H220.532V56.7375H219.236V55.4775H215.408V56.7375H214.124ZM216.896 51.9255C216.788 53.0655 216.488 53.8575 216.248 54.1935H218.252V51.3735H216.932L216.896 51.9255ZM221.86 51.4695L221.512 50.4615C221.98 50.1855 222.712 49.9455 223.42 49.9455C225.016 49.9455 225.58 50.7615 225.58 52.1895V55.4775H224.38V54.8535C224.092 55.2615 223.516 55.5495 222.784 55.5495C221.8 55.5495 221.092 54.9375 221.092 53.8935C221.092 52.7055 221.968 52.1415 223.06 52.1415C223.54 52.1415 224.02 52.2975 224.284 52.4895C224.32 51.5895 224.08 51.0975 223.276 51.0975C222.652 51.0975 222.256 51.2895 221.86 51.4695ZM223.24 54.3855C223.816 54.3855 224.116 54.1335 224.284 53.8935V53.3415C224.044 53.1615 223.732 53.0775 223.336 53.0775C222.88 53.0775 222.472 53.2935 222.472 53.7495C222.472 54.1575 222.808 54.3855 223.24 54.3855Z" fill="#2E498D"/>
</svg>
