<svg width="229" height="62" viewBox="0 0 229 62" fill="none" xmlns="http://www.w3.org/2000/svg">
<path d="M55.8639 32.7346V10.7157C57.0977 10.6524 60.1664 10.5259 62.5708 10.5259C67.8541 10.5259 70.0053 12.9619 70.0053 16.0306C70.0053 18.34 69.1195 19.8902 67.4744 20.9659V21.0291C69.0879 21.6302 70.6381 23.2437 70.6381 26.0909C70.6381 30.7415 67.0315 32.9244 62.2228 32.9244C60.1031 32.9244 57.161 32.8611 55.8639 32.7346ZM62.8871 23.8448H60.9257V27.9891C61.2737 28.084 61.685 28.1789 62.6341 28.1789C64.5955 28.1789 65.5762 27.3248 65.5762 25.8379C65.5762 24.4459 64.5322 23.8448 62.8871 23.8448ZM62.5075 15.2713C61.8748 15.2713 61.4951 15.3346 60.9257 15.3979V19.4157H62.6024C63.8995 19.4157 64.9435 18.8779 64.9435 17.2644C64.9435 15.9357 63.7413 15.2713 62.5075 15.2713ZM75.3894 32.7979V10.6524H88.5185V15.3979H80.4513V19.2891H87.5694V24.0346H80.4513V28.0524H88.8349V32.7979H75.3894ZM106.716 32.7979V23.8764H98.6483V32.7979H93.5865V10.6524H98.6483V19.1309H106.716V10.6524H111.777V32.7979H106.716ZM114.937 15.3979V10.6524H133.286V15.3979H126.643V32.7979H121.581V15.3979H114.937ZM136.438 32.7979V10.6524H141.5V20.3015L148.744 10.6524H154.818L146.498 20.8709L155.483 32.7979H149.061L141.5 22.2629V32.7979H136.438ZM170.775 32.7979V15.3979H165.903L165.429 19.5739C164.1 31.2477 161.316 33.652 156.128 32.7979L156.223 27.736C158.057 28.0524 159.956 27.3564 160.841 15.0815L161.158 10.6524H175.837V32.7979H170.775ZM185.973 32.7979H181.544V10.6524H186.606V24.4142L196.413 10.6524H200.842V32.7979H195.781V19.036L185.973 32.7979ZM219.667 32.7979V23.8764H211.6V32.7979H206.538V10.6524H211.6V19.1309H219.667V10.6524H224.729V32.7979H219.667Z" fill="white"/>
<path d="M25.4017 1.48279C25.0546 1.34581 24.3332 1.14489 23.8035 1.02617C23.2738 0.916575 22.6071 0.816117 21.7943 0.797852L21.776 10.8619C21.7578 16.4054 21.7121 20.7708 21.6756 20.5699C21.6299 20.369 21.5021 19.8301 21.3742 19.3826C21.2464 18.9351 20.945 18.1497 20.7075 17.6474C20.461 17.1452 20.0135 16.4054 19.7212 16.0036C19.4198 15.6018 18.8262 14.9442 18.4061 14.5424C17.986 14.1314 17.3741 13.62 17.0454 13.4008C16.7166 13.1816 16.0408 12.8072 15.5385 12.5697C15.0362 12.3232 14.2143 12.0218 13.712 11.8939C13.0362 11.7113 12.4882 11.6382 11.5658 11.6017C10.7987 11.5652 10.0407 11.5926 9.55666 11.6565C9.12743 11.7204 8.38769 11.8939 7.9128 12.0492C7.4379 12.2044 6.7621 12.4693 6.40593 12.6519C6.04976 12.8255 5.45613 13.1816 5.0817 13.4373C4.70726 13.6839 4.09538 14.1862 3.72095 14.5424C3.35564 14.8894 2.81682 15.4922 2.53371 15.8666C2.2506 16.241 1.83051 16.926 1.59306 17.3735C1.36474 17.821 1.0725 18.4876 0.944645 18.8347C0.816792 19.1817 0.652405 19.821 0.579342 20.2502C0.49715 20.6795 0.414955 21.3005 0.332764 22.2594L10.3969 22.2868C15.9403 22.2959 20.3057 22.3416 20.1048 22.3781C19.9039 22.4238 19.365 22.5516 18.9176 22.6795C18.4701 22.8074 17.6847 23.1087 17.1824 23.3462C16.6801 23.5928 15.9403 24.0403 15.5385 24.3325C15.1367 24.6339 14.4791 25.2275 14.0773 25.6476C13.6663 26.0677 13.1549 26.6796 12.9357 27.0083C12.7165 27.3371 12.3421 28.0129 12.1047 28.5152C11.8581 29.0175 11.5567 29.8394 11.4288 30.3417C11.2371 31.0358 11.1731 31.5655 11.1366 32.5335C11.0909 33.529 11.1183 34.013 11.2462 34.7254C11.3375 35.2277 11.5293 35.9857 11.6754 36.4149C11.8307 36.8441 12.059 37.4012 12.1777 37.6478C12.3056 37.9035 12.6343 38.4423 12.8992 38.8624C13.1732 39.2734 13.6937 39.9218 14.059 40.3054C14.4152 40.6889 15.0271 41.2369 15.4015 41.52C15.7759 41.8031 16.4609 42.2232 16.9084 42.4607C17.3559 42.689 18.0408 42.9903 18.4153 43.1182C18.7897 43.2461 19.5112 43.4287 20.0135 43.5292C20.5158 43.6388 21.1185 43.7209 21.7943 43.7209L21.8217 33.6568C21.8308 28.1134 21.8765 23.748 21.913 23.9489C21.9587 24.1498 22.0866 24.6887 22.2144 25.1362C22.3423 25.5837 22.6436 26.3691 22.8811 26.8713C23.1277 27.3736 23.5752 28.1134 23.8674 28.5152C24.1688 28.917 24.7624 29.5746 25.1825 29.9764C25.6026 30.3874 26.2145 30.8988 26.5432 31.118C26.872 31.3372 27.5478 31.7116 28.0501 31.9582C28.5524 32.1956 29.3743 32.5061 29.8766 32.634C30.6986 32.8623 30.9452 32.8806 32.4338 32.8897C33.6849 32.8988 34.2329 32.8623 34.7169 32.7436C35.0639 32.6614 35.6667 32.4788 36.0411 32.3418C36.4156 32.2139 36.9361 31.9947 37.1827 31.876C37.4384 31.7481 37.9772 31.4194 38.3973 31.1545C38.8083 30.8805 39.4567 30.36 39.8403 29.9947C40.2238 29.6385 40.7718 29.0266 41.0549 28.6522C41.338 28.2778 41.7581 27.5928 41.9956 27.1453C42.2239 26.6978 42.5161 26.0403 42.644 25.6841C42.7718 25.3279 42.9362 24.6978 43.0093 24.2686C43.0915 23.8393 43.1737 23.2183 43.2559 22.2594L33.1918 22.232C27.6483 22.2229 23.2829 22.1772 23.4838 22.1407C23.6848 22.095 24.2236 21.9672 24.6711 21.8393C25.1186 21.7114 25.904 21.4101 26.4063 21.1726C26.9086 20.926 27.6483 20.4785 28.0501 20.1863C28.452 19.8849 29.1095 19.2913 29.5113 18.8712C29.9223 18.4511 30.4337 17.8392 30.6529 17.5105C30.8721 17.1817 31.2465 16.5059 31.4931 16.0036C31.7306 15.5013 32.0319 14.6794 32.1689 14.1771C32.3424 13.5013 32.4155 12.935 32.452 12.0309C32.4886 11.2729 32.4612 10.4966 32.3972 10.0218C32.3333 9.59252 32.1506 8.83452 31.9863 8.33222C31.8127 7.82993 31.5479 7.15412 31.3835 6.82535C31.2191 6.49658 30.8721 5.92123 30.6164 5.54679C30.3698 5.17235 29.8675 4.56047 29.5113 4.18604C29.1643 3.82073 28.5615 3.28191 28.1871 2.9988C27.8127 2.71569 27.1734 2.31386 26.7716 2.10381C26.3697 1.89376 25.7487 1.61065 25.4017 1.48279Z" fill="white"/>
<path d="M53.5566 51.5207C53.5566 49.0847 55.3446 47.1887 57.9246 47.1887C60.4206 47.1887 62.3046 48.9047 62.3046 51.5207C62.3046 54.0407 60.4206 55.8527 57.9246 55.8527C55.4286 55.8527 53.5566 54.1367 53.5566 51.5207ZM55.1166 51.5207C55.1166 53.2007 56.3526 54.4727 57.9246 54.4727C59.6886 54.4727 60.7446 53.1767 60.7446 51.5207C60.7446 49.7807 59.5086 48.5687 57.9246 48.5687C56.3166 48.5687 55.1166 49.7807 55.1166 51.5207ZM67.9726 50.3207V55.7207H66.5926V53.8607C66.2566 54.0407 65.7646 54.1727 65.2486 54.1727C63.8566 54.1727 63.2926 53.4167 63.2926 52.0487V50.3207H64.7686V51.8807C64.7686 52.5527 65.0926 52.8767 65.6446 52.8767C65.9926 52.8767 66.3886 52.7807 66.5926 52.6607V50.3207H67.9726ZM70.8912 55.7207H69.5112V50.3207H70.8912V53.7407L73.4112 50.3207H74.7912V55.7207H73.4112V52.3007L70.8912 55.7207ZM80.4235 53.9087L81.0715 54.9167C80.6155 55.5287 79.7995 55.8527 78.9235 55.8527C77.1715 55.8527 75.9955 54.7247 75.9955 53.0207C75.9955 51.4487 77.1475 50.1887 78.7915 50.1887C79.6795 50.1887 80.4595 50.4167 80.9635 50.9207L80.3155 52.0127C79.9075 51.6167 79.4635 51.4847 78.9715 51.4847C78.2035 51.4847 77.4715 52.0727 77.4715 53.0207C77.4715 53.9807 78.2155 54.5687 79.0315 54.5687C79.6195 54.5687 80.0755 54.2927 80.4235 53.9087ZM81.5097 51.7007V50.3207H86.4297V51.7007H84.6657V55.7207H83.2857V51.7007H81.5097ZM92.5294 50.3207L90.4534 52.8887L92.7814 55.7207H90.9814L88.8454 52.9967L90.7894 50.3207H92.5294ZM87.4174 55.7207V50.3207H88.7974V55.7207H87.4174ZM94.0132 51.7127L93.6652 50.7047C94.1332 50.4287 94.8652 50.1887 95.5732 50.1887C97.1692 50.1887 97.7332 51.0047 97.7332 52.4327V55.7207H96.5332V55.0967C96.2452 55.5047 95.6692 55.7927 94.9372 55.7927C93.9532 55.7927 93.2452 55.1807 93.2452 54.1367C93.2452 52.9487 94.1212 52.3847 95.2132 52.3847C95.6932 52.3847 96.1732 52.5407 96.4372 52.7327C96.4732 51.8327 96.2332 51.3407 95.4292 51.3407C94.8052 51.3407 94.4092 51.5327 94.0132 51.7127ZM95.3932 54.6287C95.9692 54.6287 96.2692 54.3767 96.4372 54.1367V53.5847C96.1972 53.4047 95.8852 53.3207 95.4892 53.3207C95.0332 53.3207 94.6252 53.5367 94.6252 53.9927C94.6252 54.4007 94.9612 54.6287 95.3932 54.6287ZM101.691 55.7207V50.3207C102.159 50.3087 102.975 50.2607 103.815 50.2607C105.387 50.2607 106.263 50.6927 106.263 51.6767C106.263 52.3247 105.795 52.7927 105.255 52.8767V52.9007C106.011 53.0807 106.407 53.5247 106.407 54.1487C106.407 55.2167 105.579 55.7807 103.839 55.7807C103.167 55.7807 102.183 55.7207 101.691 55.7207ZM103.935 53.4287H103.071V54.6287C103.275 54.6407 103.647 54.6767 103.983 54.6767C104.595 54.6767 104.955 54.4247 104.955 54.0527C104.955 53.6447 104.583 53.4287 103.935 53.4287ZM103.935 51.3767C103.611 51.3767 103.215 51.3887 103.071 51.4007V52.5887H103.971C104.427 52.5887 104.799 52.3847 104.799 51.9647C104.799 51.5687 104.451 51.3767 103.935 51.3767ZM111.95 54.2087L112.346 55.1807C111.806 55.6367 111.038 55.8527 110.282 55.8527C108.542 55.8527 107.378 54.7247 107.378 53.0207C107.378 51.4487 108.458 50.1887 110.234 50.1887C111.626 50.1887 112.79 51.1847 112.79 52.6967C112.79 53.0327 112.766 53.2367 112.706 53.4407H108.806C108.926 54.2567 109.574 54.7007 110.426 54.7007C111.086 54.7007 111.638 54.4607 111.95 54.2087ZM110.174 51.3407C109.346 51.3407 108.902 51.8087 108.758 52.5167H111.41C111.422 51.8567 110.966 51.3407 110.174 51.3407ZM117.646 55.7207V53.6567H115.282V55.7207H113.902V50.3207H115.282V52.3607H117.646V50.3207H119.026V55.7207H117.646ZM119.994 51.7007V50.3207H124.914V51.7007H123.15V55.7207H121.77V51.7007H119.994ZM127.282 55.7207H125.902V50.3207H127.282V53.7407L129.802 50.3207H131.182V55.7207H129.802V52.3007L127.282 55.7207ZM136.274 55.7207V51.7007H134.846L134.81 52.2767C134.546 55.2167 133.826 55.8287 132.374 55.8287L132.254 54.4847C132.722 54.5327 133.358 54.0887 133.478 52.0007L133.562 50.3207H137.654V55.7207H136.274ZM141.831 50.3207H143.595V55.7207H142.215V54.1007H141.447L140.331 55.7207H138.747L140.187 53.8007C139.719 53.6327 139.143 53.1287 139.143 52.2407C139.143 51.1967 139.887 50.3207 141.831 50.3207ZM140.619 52.3367C140.619 52.7807 141.063 53.0807 141.495 53.0807H142.215V51.5207H141.603C140.931 51.5207 140.619 51.9287 140.619 52.3367ZM145.132 55.7207V50.3207H146.512V54.4367H148.732V50.3207H150.112V54.4367H151.012V56.9807H149.716V55.7207H145.132ZM153.309 55.7207H151.929V50.3207H153.309V53.7407L155.829 50.3207H157.209V55.7207H155.829V52.3007L153.309 55.7207ZM160.129 55.7207H158.749V50.3207H160.129V53.7407L162.649 50.3207H164.029V55.7207H162.649V52.3007L160.129 55.7207ZM172.205 53.9087L172.853 54.9167C172.397 55.5287 171.581 55.8527 170.705 55.8527C168.953 55.8527 167.777 54.7247 167.777 53.0207C167.777 51.4487 168.929 50.1887 170.573 50.1887C171.461 50.1887 172.241 50.4167 172.745 50.9207L172.097 52.0127C171.689 51.6167 171.245 51.4847 170.753 51.4847C169.985 51.4847 169.253 52.0727 169.253 53.0207C169.253 53.9807 169.997 54.5687 170.813 54.5687C171.401 54.5687 171.857 54.2927 172.205 53.9087ZM175.999 48.9047L178.147 47.2967H179.143V55.7207H177.763V49.2647L176.731 50.0447L175.999 48.9047ZM186.519 50.3927C186.519 53.6207 184.611 55.5647 182.211 55.8527L181.755 54.7607C183.483 54.4127 184.551 53.3927 184.887 51.8327C184.539 52.3127 183.999 52.5887 183.291 52.5887C181.875 52.5887 180.759 51.4727 180.759 49.9847C180.759 48.2207 182.199 47.1887 183.543 47.1887C185.415 47.1887 186.519 48.5207 186.519 50.3927ZM185.055 50.3807C185.055 49.4207 184.551 48.5687 183.543 48.5687C182.763 48.5687 182.223 49.2167 182.223 49.8887C182.223 50.6207 182.739 51.2927 183.627 51.2927C184.383 51.2927 184.839 50.8367 185.055 50.3807ZM193.176 50.3927C193.176 53.6207 191.268 55.5647 188.868 55.8527L188.412 54.7607C190.14 54.4127 191.208 53.3927 191.544 51.8327C191.196 52.3127 190.656 52.5887 189.948 52.5887C188.532 52.5887 187.416 51.4727 187.416 49.9847C187.416 48.2207 188.856 47.1887 190.2 47.1887C192.072 47.1887 193.176 48.5207 193.176 50.3927ZM191.712 50.3807C191.712 49.4207 191.208 48.5687 190.2 48.5687C189.42 48.5687 188.88 49.2167 188.88 49.8887C188.88 50.6207 189.396 51.2927 190.284 51.2927C191.04 51.2927 191.496 50.8367 191.712 50.3807ZM197.204 50.7167H197.432C198.068 50.7167 198.512 50.2007 198.512 49.6367C198.512 48.9527 198.008 48.5687 197.288 48.5687C196.568 48.5687 196.1 49.0127 196.1 49.6367C196.1 50.2007 196.544 50.7167 197.204 50.7167ZM197.432 52.0967H197.228C196.52 52.0967 195.872 52.5407 195.872 53.2847C195.872 53.9447 196.4 54.4727 197.3 54.4727C198.296 54.4727 198.764 53.9567 198.752 53.2847C198.74 52.5047 198.164 52.0967 197.432 52.0967ZM197.312 55.8527C195.68 55.8527 194.396 54.9767 194.396 53.5487C194.396 52.4687 195.02 51.7007 195.836 51.4247V51.3887C195.188 51.1127 194.636 50.3807 194.636 49.3967C194.636 48.0767 195.824 47.1887 197.3 47.1887C198.788 47.1887 199.988 48.0767 199.988 49.3967C199.988 50.2127 199.508 51.0287 198.692 51.3767V51.4127C199.52 51.5807 200.216 52.3367 200.216 53.4287C200.216 54.9767 198.944 55.8527 197.312 55.8527ZM204.218 55.7207V50.3207H207.842V51.6167H205.598V55.7207H204.218ZM208.206 53.0207C208.206 51.4007 209.358 50.1887 211.146 50.1887C212.934 50.1887 214.086 51.4007 214.086 53.0207C214.086 54.6407 212.934 55.8527 211.146 55.8527C209.358 55.8527 208.206 54.6407 208.206 53.0207ZM209.682 53.0207C209.682 53.9207 210.306 54.5687 211.146 54.5687C211.998 54.5687 212.622 53.9567 212.622 53.0207C212.622 52.1087 211.986 51.4847 211.146 51.4847C210.33 51.4847 209.682 52.0847 209.682 53.0207ZM214.457 56.9807V54.4367H215.141C215.525 53.9327 215.825 52.8407 215.897 51.6167L215.981 50.3207H219.965V54.4367H220.865V56.9807H219.569V55.7207H215.741V56.9807H214.457ZM217.229 52.1687C217.121 53.3087 216.821 54.1007 216.581 54.4367H218.585V51.6167H217.265L217.229 52.1687ZM222.193 51.7127L221.845 50.7047C222.313 50.4287 223.045 50.1887 223.753 50.1887C225.349 50.1887 225.913 51.0047 225.913 52.4327V55.7207H224.713V55.0967C224.425 55.5047 223.849 55.7927 223.117 55.7927C222.133 55.7927 221.425 55.1807 221.425 54.1367C221.425 52.9487 222.301 52.3847 223.393 52.3847C223.873 52.3847 224.353 52.5407 224.617 52.7327C224.653 51.8327 224.413 51.3407 223.609 51.3407C222.985 51.3407 222.589 51.5327 222.193 51.7127ZM223.573 54.6287C224.149 54.6287 224.449 54.3767 224.617 54.1367V53.5847C224.377 53.4047 224.065 53.3207 223.669 53.3207C223.213 53.3207 222.805 53.5367 222.805 53.9927C222.805 54.4007 223.141 54.6287 223.573 54.6287Z" fill="white"/>
</svg>
