<?xml version="1.0" standalone="no"?>
<!DOCTYPE svg PUBLIC "-//W3C//DTD SVG 20010904//EN"
 "http://www.w3.org/TR/2001/REC-SVG-20010904/DTD/svg10.dtd">
<svg version="1.0" xmlns="http://www.w3.org/2000/svg"
 width="512.000000pt" height="512.000000pt" viewBox="0 0 512.000000 512.000000"
 preserveAspectRatio="xMidYMid meet">

<g transform="translate(0.000000,512.000000) scale(0.100000,-0.100000)"
fill="#fff" stroke="none">
<path d="M2998 3464 c-59 -31 -76 -121 -34 -171 13 -15 186 -158 384 -318
l360 -290 -1341 -5 c-1065 -4 -1347 -8 -1364 -18 -68 -39 -68 -165 0 -204 17
-10 299 -14 1364 -18 l1341 -5 -360 -290 c-198 -159 -371 -303 -384 -318 -43
-51 -24 -141 36 -172 38 -20 90 -19 120 2 75 51 1038 835 1044 848 8 21 8 89
0 110 -6 13 -969 797 -1044 848 -30 21 -86 21 -122 1z"/>
</g>
</svg>
