<svg width="31" height="32" viewBox="0 0 31 32" fill="none" xmlns="http://www.w3.org/2000/svg">
<path d="M12.9168 19.8913L19.6206 16.0163L12.9168 12.1413V19.8913ZM27.8485 9.77753C28.0164 10.3846 28.1327 11.1984 28.2102 12.2317C28.3006 13.265 28.3393 14.1563 28.3393 14.9313L28.4168 16.0163C28.4168 18.845 28.2102 20.9246 27.8485 22.255C27.5256 23.4175 26.7764 24.1667 25.6139 24.4896C25.0068 24.6575 23.896 24.7738 22.191 24.8513C20.5118 24.9417 18.9747 24.9804 17.5539 24.9804L15.5002 25.0579C10.0881 25.0579 6.71683 24.8513 5.38641 24.4896C4.22391 24.1667 3.47475 23.4175 3.15183 22.255C2.98391 21.6479 2.86766 20.8342 2.79016 19.8009C2.69975 18.7675 2.661 17.8763 2.661 17.1013L2.5835 16.0163C2.5835 13.1875 2.79016 11.1079 3.15183 9.77753C3.47475 8.61503 4.22391 7.86586 5.38641 7.54294C5.9935 7.37503 7.10433 7.25878 8.80933 7.18128C10.4885 7.09086 12.0256 7.05211 13.4464 7.05211L15.5002 6.97461C20.9122 6.97461 24.2835 7.18128 25.6139 7.54294C26.7764 7.86586 27.5256 8.61503 27.8485 9.77753Z" fill="#2E498D"/>
</svg>
